# xmcd
#
# Track frame offsets:
#	150
#	25740
#	65263
#	82903
#	105443
#	145319
#
# Disc length: 2278 seconds
#
# Revision: 1
# Processed by: cddbd v1.5.1PL0 Copyright (c) Steve Scherf et al.
# Submitted via: CDex 1.50Beta5
#
DISCID=4008e406
DTITLE=フローネ・トリーティア - 悠久幻想曲３〜Ｐｅｒｐｅｔｕａｌ　Ｂｌｕｅ〜マキシシングルコレクション　Ｖｏｌ
DYEAR=1900
DGENRE=Game
TTITLE0=ここで良かったね
TTITLE1=恐怖！真夜中の惨劇！〜オリジナルドラマ
TTITLE2=Ｇｒａｔｅｆｕｌ　Ｓｏｎｇｓ（ｏｒｉｇｉｎａｌ）
TTITLE3=Ｇｒａｔｅｆｕｌ　Ｓｏｎｇｓ（ａｒｒａｎｇｅ）
TTITLE4=フローネ共々よろしくお願いします！　Ｂｙ堀江由衣
TTITLE5=ここで良かったね（カラオケ）
EXTD=
EXTT0=
EXTT1=
EXTT2=
EXTT3=
EXTT4=
EXTT5=
PLAYORDER=
